<svg width="65" height="46" viewBox="0 0 65 46" fill="none" xmlns="http://www.w3.org/2000/svg">
<path d="M11.9764 38.1361C11.9764 41.0401 9.91239 42.7921 7.12839 43.1281V45.2401H5.52039V43.1521C2.83239 42.9601 0.840391 41.5921 0.000390634 39.3601L2.85639 37.7041C3.36039 38.9521 4.20039 39.6961 5.52039 39.8881V35.7361C5.49639 35.7361 5.47239 35.7121 5.44839 35.7121C3.21639 34.8481 0.744391 33.7681 0.744391 30.5761C0.744391 27.6001 3.00039 25.9681 5.52039 25.7281V23.6401H7.12839V25.7761C9.12039 26.0161 10.8244 27.1201 11.7364 29.1601L8.95239 30.7921C8.56839 29.8321 7.96839 29.2561 7.12839 29.0401V33.0481C9.31239 33.9121 11.9764 34.7761 11.9764 38.1361ZM4.03239 30.6001C4.03239 31.2961 4.41639 31.7761 5.52039 32.3281V28.9681C4.56039 29.1601 4.03239 29.7841 4.03239 30.6001ZM7.12839 39.8401C8.20839 39.6001 8.66439 38.9041 8.66439 38.1601C8.66439 37.3201 8.11239 36.8401 7.12839 36.3841V39.8401ZM23.4723 0.840085H30.6723V42.8401H22.3923V9.60009L14.4723 11.8201L12.4323 4.74008L23.4723 0.840085ZM64.7754 14.5801C64.7754 17.8201 63.8754 20.7601 62.2554 23.1001H62.3154L49.2354 42.8401H39.7554L49.1154 29.1601C40.4154 28.9801 34.3554 23.0401 34.3554 14.5801C34.3554 6.00009 40.5954 8.51154e-05 49.5354 8.51154e-05C58.5954 8.51154e-05 64.7754 6.00009 64.7754 14.5801ZM42.5754 14.5801C42.5754 18.8401 45.6954 21.4201 49.5354 21.4201C53.4954 21.4201 56.5554 18.8401 56.5554 14.5801C56.5554 10.3201 53.4954 7.80008 49.5354 7.80008C45.6954 7.80008 42.5754 10.3801 42.5754 14.5801Z" fill="#161C2D"/>
</svg>
