<svg width="76" height="46" viewBox="0 0 76 46" fill="none" xmlns="http://www.w3.org/2000/svg">
<path d="M11.9764 38.1361C11.9764 41.0401 9.91239 42.7921 7.12839 43.1281V45.2401H5.52039V43.1521C2.83239 42.9601 0.840391 41.5921 0.000390634 39.3601L2.85639 37.7041C3.36039 38.9521 4.20039 39.6961 5.52039 39.8881V35.7361C5.49639 35.7361 5.47239 35.7121 5.44839 35.7121C3.21639 34.8481 0.744391 33.7681 0.744391 30.5761C0.744391 27.6001 3.00039 25.9681 5.52039 25.7281V23.6401H7.12839V25.7761C9.12039 26.0161 10.8244 27.1201 11.7364 29.1601L8.95239 30.7921C8.56839 29.8321 7.96839 29.2561 7.12839 29.0401V33.0481C9.31239 33.9121 11.9764 34.7761 11.9764 38.1361ZM4.03239 30.6001C4.03239 31.2961 4.41639 31.7761 5.52039 32.3281V28.9681C4.56039 29.1601 4.03239 29.7841 4.03239 30.6001ZM7.12839 39.8401C8.20839 39.6001 8.66439 38.9041 8.66439 38.1601C8.66439 37.3201 8.11239 36.8401 7.12839 36.3841V39.8401ZM45.7323 28.0201V35.7001H41.2323V42.8401H32.8923V35.7001H13.0323V28.0201L27.0123 0.840085H35.8923L21.9723 28.0201H32.8923V18.0601H41.2323V28.0201H45.7323ZM75.2051 14.5801C75.2051 17.8201 74.3051 20.7601 72.6851 23.1001H72.7451L59.6651 42.8401H50.1851L59.5451 29.1601C50.8451 28.9801 44.7851 23.0401 44.7851 14.5801C44.7851 6.00009 51.0251 8.51154e-05 59.9651 8.51154e-05C69.0251 8.51154e-05 75.2051 6.00009 75.2051 14.5801ZM53.0051 14.5801C53.0051 18.8401 56.1251 21.4201 59.9651 21.4201C63.9251 21.4201 66.9851 18.8401 66.9851 14.5801C66.9851 10.3201 63.9251 7.80008 59.9651 7.80008C56.1251 7.80008 53.0051 10.3801 53.0051 14.5801Z" fill="#161C2D"/>
</svg>
