<svg width="75" height="46" viewBox="0 0 75 46" fill="none" xmlns="http://www.w3.org/2000/svg">
<path d="M11.9764 38.1361C11.9764 41.0401 9.91239 42.7921 7.12839 43.1281V45.2401H5.52039V43.1521C2.83239 42.9601 0.840391 41.5921 0.000390634 39.3601L2.85639 37.7041C3.36039 38.9521 4.20039 39.6961 5.52039 39.8881V35.7361C5.49639 35.7361 5.47239 35.7121 5.44839 35.7121C3.21639 34.8481 0.744391 33.7681 0.744391 30.5761C0.744391 27.6001 3.00039 25.9681 5.52039 25.7281V23.6401H7.12839V25.7761C9.12039 26.0161 10.8244 27.1201 11.7364 29.1601L8.95239 30.7921C8.56839 29.8321 7.96839 29.2561 7.12839 29.0401V33.0481C9.31239 33.9121 11.9764 34.7761 11.9764 38.1361ZM4.03239 30.6001C4.03239 31.2961 4.41639 31.7761 5.52039 32.3281V28.9681C4.56039 29.1601 4.03239 29.7841 4.03239 30.6001ZM7.12839 39.8401C8.20839 39.6001 8.66439 38.9041 8.66439 38.1601C8.66439 37.3201 8.11239 36.8401 7.12839 36.3841V39.8401ZM43.5723 14.5801C43.5723 17.8201 42.6723 20.7601 41.0523 23.1001H41.1123L28.0323 42.8401H18.5523L27.9123 29.1601C19.2123 28.9801 13.1523 23.0401 13.1523 14.5801C13.1523 6.00009 19.3923 8.51154e-05 28.3323 8.51154e-05C37.3923 8.51154e-05 43.5723 6.00009 43.5723 14.5801ZM21.3723 14.5801C21.3723 18.8401 24.4923 21.4201 28.3323 21.4201C32.2923 21.4201 35.3523 18.8401 35.3523 14.5801C35.3523 10.3201 32.2923 7.80008 28.3323 7.80008C24.4923 7.80008 21.3723 10.3801 21.3723 14.5801ZM74.7363 14.5801C74.7363 17.8201 73.8363 20.7601 72.2163 23.1001H72.2763L59.1963 42.8401H49.7163L59.0763 29.1601C50.3763 28.9801 44.3163 23.0401 44.3163 14.5801C44.3163 6.00009 50.5563 8.51154e-05 59.4963 8.51154e-05C68.5563 8.51154e-05 74.7363 6.00009 74.7363 14.5801ZM52.5363 14.5801C52.5363 18.8401 55.6563 21.4201 59.4963 21.4201C63.4563 21.4201 66.5163 18.8401 66.5163 14.5801C66.5163 10.3201 63.4563 7.80008 59.4963 7.80008C55.6563 7.80008 52.5363 10.3801 52.5363 14.5801Z" fill="#161C2D"/>
</svg>
