<svg width="232" height="29" viewBox="0 0 232 29" fill="none" xmlns="http://www.w3.org/2000/svg">
<path d="M5.831 8.1C9.112 8.1 11.56 10.701 11.56 14.05C11.56 17.399 9.112 20 5.831 20H1.105V8.1H5.831ZM5.831 17.756C7.888 17.756 9.316 16.243 9.316 14.05C9.316 11.857 7.888 10.344 5.831 10.344H3.451V17.756H5.831ZM14.0101 10.48C13.2791 10.48 12.6671 9.868 12.6671 9.137C12.6671 8.406 13.2791 7.777 14.0101 7.777C14.7581 7.777 15.3701 8.406 15.3701 9.137C15.3701 9.868 14.7581 10.48 14.0101 10.48ZM12.9221 20V11.5H15.1151V20H12.9221ZM18.7753 16.651C19.0813 17.773 20.0163 18.249 21.1723 18.249C22.0223 18.249 22.7023 17.892 23.0763 17.399L24.8443 18.419C24.0453 19.575 22.7703 20.238 21.1383 20.238C18.2823 20.238 16.4803 18.283 16.4803 15.75C16.4803 13.217 18.2993 11.262 20.9683 11.262C23.4843 11.262 25.2693 13.251 25.2693 15.75C25.2693 16.073 25.2353 16.362 25.1843 16.651H18.7753ZM18.7413 14.951H23.0763C22.8043 13.727 21.8863 13.234 20.9683 13.234C19.7953 13.234 18.9963 13.863 18.7413 14.951ZM33.0449 11.5H35.1869V19.592C35.1869 22.38 32.9939 23.638 30.7499 23.638C28.9309 23.638 27.4689 22.941 26.7209 21.564L28.5909 20.493C28.9479 21.156 29.5089 21.683 30.8179 21.683C32.1949 21.683 33.0449 20.935 33.0449 19.592V18.674C32.4499 19.473 31.5319 19.966 30.3249 19.966C27.9109 19.966 26.0919 18.011 26.0919 15.614C26.0919 13.234 27.9109 11.262 30.3249 11.262C31.5319 11.262 32.4499 11.755 33.0449 12.554V11.5ZM30.6649 17.943C32.0419 17.943 33.0449 16.974 33.0449 15.614C33.0449 14.271 32.0419 13.302 30.6649 13.302C29.2879 13.302 28.2849 14.271 28.2849 15.614C28.2849 16.974 29.2879 17.943 30.6649 17.943ZM41.0215 20.238C38.5225 20.238 36.5335 18.283 36.5335 15.75C36.5335 13.217 38.5225 11.262 41.0215 11.262C43.5205 11.262 45.5265 13.217 45.5265 15.75C45.5265 18.283 43.5205 20.238 41.0215 20.238ZM41.0215 18.096C42.3305 18.096 43.3335 17.127 43.3335 15.75C43.3335 14.373 42.3305 13.404 41.0215 13.404C39.7295 13.404 38.7265 14.373 38.7265 15.75C38.7265 17.127 39.7295 18.096 41.0215 18.096ZM62.6662 8.1V20H60.3372V12.282L56.9882 17.807H56.7162L53.3672 12.299V20H51.0212V8.1H53.4352L56.8522 13.727L60.2522 8.1H62.6662ZM68.6275 20.238C66.1285 20.238 64.1395 18.283 64.1395 15.75C64.1395 13.217 66.1285 11.262 68.6275 11.262C71.1265 11.262 73.1325 13.217 73.1325 15.75C73.1325 18.283 71.1265 20.238 68.6275 20.238ZM68.6275 18.096C69.9365 18.096 70.9395 17.127 70.9395 15.75C70.9395 14.373 69.9365 13.404 68.6275 13.404C67.3355 13.404 66.3325 14.373 66.3325 15.75C66.3325 17.127 67.3355 18.096 68.6275 18.096ZM76.6683 12.962C77.1103 11.806 78.1813 11.33 79.2523 11.33V13.778C78.1133 13.642 76.6683 14.152 76.6683 15.937V20H74.4753V11.5H76.6683V12.962ZM86.4794 11.5H88.6724V20H86.4794V18.997C85.8674 19.762 84.9494 20.238 83.7084 20.238C81.4474 20.238 79.5774 18.283 79.5774 15.75C79.5774 13.217 81.4474 11.262 83.7084 11.262C84.9494 11.262 85.8674 11.738 86.4794 12.503V11.5ZM84.1164 18.147C85.4764 18.147 86.4794 17.178 86.4794 15.75C86.4794 14.322 85.4764 13.353 84.1164 13.353C82.7734 13.353 81.7704 14.322 81.7704 15.75C81.7704 17.178 82.7734 18.147 84.1164 18.147ZM95.323 13.608H93.402V17.144C93.402 18.062 94.065 18.079 95.323 18.011V20C92.246 20.34 91.209 19.439 91.209 17.144V13.608H89.73V11.5H91.209V9.783L93.402 9.12V11.5H95.323V13.608ZM102.864 11.5H105.057V20H102.864V18.997C102.252 19.762 101.334 20.238 100.093 20.238C97.8316 20.238 95.9616 18.283 95.9616 15.75C95.9616 13.217 97.8316 11.262 100.093 11.262C101.334 11.262 102.252 11.738 102.864 12.503V11.5ZM100.501 18.147C101.861 18.147 102.864 17.178 102.864 15.75C102.864 14.322 101.861 13.353 100.501 13.353C99.1576 13.353 98.1546 14.322 98.1546 15.75C98.1546 17.178 99.1576 18.147 100.501 18.147Z" fill="#161C2D"/>
<path opacity="0.7" d="M91.4883 20L88.0373 8.1H89.2953L92.2363 18.385L95.3303 8.1H96.7243L99.8183 18.385L102.759 8.1H104.017L100.566 20H99.1383L96.0273 9.664L92.9163 20H91.4883ZM108.432 11.296C111.033 11.296 112.648 13.455 112.648 15.784C112.648 15.954 112.631 16.141 112.614 16.311H105.151C105.389 18.045 106.732 19.116 108.534 19.116C109.877 19.116 110.812 18.487 111.271 17.671L112.257 18.249C111.543 19.405 110.234 20.204 108.517 20.204C105.831 20.204 103.995 18.317 103.995 15.75C103.995 13.251 105.797 11.296 108.432 11.296ZM108.432 12.384C106.647 12.384 105.372 13.557 105.151 15.223H111.492C111.254 13.353 109.894 12.384 108.432 12.384ZM118.788 11.296C121.185 11.296 123.174 13.234 123.174 15.75C123.174 18.266 121.185 20.204 118.788 20.204C117.275 20.204 116.068 19.473 115.354 18.334V20H114.232V8.1H115.354V13.166C116.068 12.027 117.275 11.296 118.788 11.296ZM118.703 19.116C120.59 19.116 122.052 17.637 122.052 15.75C122.052 13.863 120.59 12.384 118.703 12.384C116.816 12.384 115.354 13.863 115.354 15.75C115.354 17.637 116.816 19.116 118.703 19.116ZM133.65 8.1C136.931 8.1 139.26 10.769 139.26 14.05C139.26 17.331 136.931 20 133.65 20H129.06V8.1H133.65ZM133.65 18.878C136.302 18.878 138.104 16.719 138.104 14.05C138.104 11.381 136.302 9.222 133.65 9.222H130.25V18.878H133.65ZM144.852 11.296C147.453 11.296 149.068 13.455 149.068 15.784C149.068 15.954 149.051 16.141 149.034 16.311H141.571C141.809 18.045 143.152 19.116 144.954 19.116C146.297 19.116 147.232 18.487 147.691 17.671L148.677 18.249C147.963 19.405 146.654 20.204 144.937 20.204C142.251 20.204 140.415 18.317 140.415 15.75C140.415 13.251 142.217 11.296 144.852 11.296ZM144.852 12.384C143.067 12.384 141.792 13.557 141.571 15.223H147.912C147.674 13.353 146.314 12.384 144.852 12.384ZM156.441 11.5H157.631L154.146 20H152.786L149.301 11.5H150.491L153.466 18.827L156.441 11.5ZM162.382 11.296C164.983 11.296 166.598 13.455 166.598 15.784C166.598 15.954 166.581 16.141 166.564 16.311H159.101C159.339 18.045 160.682 19.116 162.484 19.116C163.827 19.116 164.762 18.487 165.221 17.671L166.207 18.249C165.493 19.405 164.184 20.204 162.467 20.204C159.781 20.204 157.945 18.317 157.945 15.75C157.945 13.251 159.747 11.296 162.382 11.296ZM162.382 12.384C160.597 12.384 159.322 13.557 159.101 15.223H165.442C165.204 13.353 163.844 12.384 162.382 12.384ZM168.183 20V7.59H169.305V20H168.183ZM175.447 20.204C172.965 20.204 170.976 18.266 170.976 15.75C170.976 13.234 172.965 11.296 175.447 11.296C177.929 11.296 179.918 13.234 179.918 15.75C179.918 18.266 177.929 20.204 175.447 20.204ZM175.447 19.116C177.334 19.116 178.796 17.637 178.796 15.75C178.796 13.863 177.334 12.384 175.447 12.384C173.56 12.384 172.098 13.863 172.098 15.75C172.098 17.637 173.56 19.116 175.447 19.116ZM186.151 11.296C188.548 11.296 190.537 13.234 190.537 15.75C190.537 18.266 188.548 20.204 186.151 20.204C184.638 20.204 183.431 19.473 182.717 18.334V23.4H181.595V11.5H182.717V13.166C183.431 12.027 184.638 11.296 186.151 11.296ZM186.066 19.116C187.953 19.116 189.415 17.637 189.415 15.75C189.415 13.863 187.953 12.384 186.066 12.384C184.179 12.384 182.717 13.863 182.717 15.75C182.717 17.637 184.179 19.116 186.066 19.116ZM196.13 11.296C198.731 11.296 200.346 13.455 200.346 15.784C200.346 15.954 200.329 16.141 200.312 16.311H192.849C193.087 18.045 194.43 19.116 196.232 19.116C197.575 19.116 198.51 18.487 198.969 17.671L199.955 18.249C199.241 19.405 197.932 20.204 196.215 20.204C193.529 20.204 191.693 18.317 191.693 15.75C191.693 13.251 193.495 11.296 196.13 11.296ZM196.13 12.384C194.345 12.384 193.07 13.557 192.849 15.223H199.19C198.952 13.353 197.592 12.384 196.13 12.384ZM203.053 12.911C203.648 11.721 204.651 11.364 205.739 11.364V12.452C204.379 12.452 203.053 13.166 203.053 15.274V20H201.931V11.5H203.053V12.911Z" fill="#161C2D"/>
</svg>
