<svg width="235" height="29" viewBox="0 0 235 29" fill="none" xmlns="http://www.w3.org/2000/svg">
<path d="M8.211 10.344H3.451V13.166H8.075V15.41H3.451V20H1.105V8.1H8.211V10.344ZM11.8114 12.962C12.2534 11.806 13.3244 11.33 14.3954 11.33V13.778C13.2564 13.642 11.8114 14.152 11.8114 15.937V20H9.61843V11.5H11.8114V12.962ZM21.6226 11.5H23.8156V20H21.6226V18.997C21.0106 19.762 20.0926 20.238 18.8516 20.238C16.5906 20.238 14.7206 18.283 14.7206 15.75C14.7206 13.217 16.5906 11.262 18.8516 11.262C20.0926 11.262 21.0106 11.738 21.6226 12.503V11.5ZM19.2596 18.147C20.6196 18.147 21.6226 17.178 21.6226 15.75C21.6226 14.322 20.6196 13.353 19.2596 13.353C17.9166 13.353 16.9136 14.322 16.9136 15.75C16.9136 17.178 17.9166 18.147 19.2596 18.147ZM30.3302 11.262C32.1322 11.262 33.5432 12.52 33.5432 14.781V20H31.3502V15.053C31.3502 13.897 30.6532 13.302 29.6672 13.302C28.5962 13.302 27.7972 13.931 27.7972 15.41V20H25.6042V11.5H27.7972V12.452C28.3072 11.687 29.1912 11.262 30.3302 11.262ZM43.0527 20H40.5027L37.4087 16.141V20H35.2157V8.1H37.4087V15.24L40.3327 11.5H42.9507L39.5337 15.699L43.0527 20ZM43.9473 20V7.59H46.1403V20H43.9473ZM49.0355 10.48C48.3045 10.48 47.6925 9.868 47.6925 9.137C47.6925 8.406 48.3045 7.777 49.0355 7.777C49.7835 7.777 50.3955 8.406 50.3955 9.137C50.3955 9.868 49.7835 10.48 49.0355 10.48ZM47.9475 20V11.5H50.1405V20H47.9475ZM56.6737 11.262C58.4757 11.262 59.8867 12.52 59.8867 14.781V20H57.6937V15.053C57.6937 13.897 56.9967 13.302 56.0107 13.302C54.9397 13.302 54.1407 13.931 54.1407 15.41V20H51.9477V11.5H54.1407V12.452C54.6507 11.687 55.5347 11.262 56.6737 11.262ZM72.4772 8.1H74.8062V20H72.4772V15.07H68.0572V20H65.7112V8.1H68.0572V12.826H72.4772V8.1ZM77.8029 10.48C77.0719 10.48 76.4599 9.868 76.4599 9.137C76.4599 8.406 77.0719 7.777 77.8029 7.777C78.5509 7.777 79.1629 8.406 79.1629 9.137C79.1629 9.868 78.5509 10.48 77.8029 10.48ZM76.7149 20V11.5H78.9079V20H76.7149ZM84.7611 20.238C82.1771 20.238 80.2731 18.283 80.2731 15.75C80.2731 13.217 82.1771 11.262 84.7611 11.262C86.4271 11.262 87.8721 12.146 88.5691 13.455L86.6821 14.56C86.3421 13.863 85.6111 13.421 84.7441 13.421C83.4351 13.421 82.4661 14.39 82.4661 15.75C82.4661 17.093 83.4351 18.062 84.7441 18.062C85.6281 18.062 86.3591 17.637 86.6991 16.94L88.6031 18.028C87.8721 19.354 86.4271 20.238 84.7611 20.238ZM97.4 20H94.85L91.756 16.141V20H89.563V8.1H91.756V15.24L94.68 11.5H97.298L93.881 15.699L97.4 20ZM99.7532 13.914C99.7532 15.172 104.139 14.39 104.139 17.518C104.139 19.354 102.541 20.238 100.722 20.238C99.0222 20.238 97.7642 19.524 97.1521 18.215L99.0562 17.144C99.2942 17.841 99.8722 18.249 100.722 18.249C101.419 18.249 101.895 18.011 101.895 17.518C101.895 16.277 97.5092 16.957 97.5092 13.965C97.5092 12.231 98.9881 11.262 100.739 11.262C102.116 11.262 103.306 11.891 103.969 13.064L102.099 14.084C101.844 13.54 101.368 13.217 100.739 13.217C100.195 13.217 99.7532 13.455 99.7532 13.914Z" fill="#161C2D"/>
<path opacity="0.7" d="M94.6082 8.1C97.8892 8.1 100.218 10.769 100.218 14.05C100.218 17.331 97.8892 20 94.6082 20H90.0182V8.1H94.6082ZM94.6082 18.878C97.2602 18.878 99.0622 16.719 99.0622 14.05C99.0622 11.381 97.2602 9.222 94.6082 9.222H91.2082V18.878H94.6082ZM102.445 9.698C101.986 9.698 101.629 9.324 101.629 8.882C101.629 8.44 101.986 8.066 102.445 8.066C102.904 8.066 103.261 8.44 103.261 8.882C103.261 9.324 102.904 9.698 102.445 9.698ZM101.884 20V11.5H103.006V20H101.884ZM112.496 11.5H113.618V19.66C113.618 22.244 111.544 23.604 109.351 23.604C107.396 23.604 105.985 22.856 105.322 21.53L106.308 20.969C106.733 21.836 107.515 22.516 109.351 22.516C111.323 22.516 112.496 21.394 112.496 19.66V18.334C111.782 19.473 110.575 20.204 109.062 20.204C106.665 20.204 104.676 18.266 104.676 15.75C104.676 13.234 106.665 11.296 109.062 11.296C110.575 11.296 111.782 12.027 112.496 13.166V11.5ZM109.147 19.116C111.034 19.116 112.496 17.637 112.496 15.75C112.496 13.863 111.034 12.384 109.147 12.384C107.26 12.384 105.798 13.863 105.798 15.75C105.798 17.637 107.26 19.116 109.147 19.116ZM116.355 9.698C115.896 9.698 115.539 9.324 115.539 8.882C115.539 8.44 115.896 8.066 116.355 8.066C116.814 8.066 117.171 8.44 117.171 8.882C117.171 9.324 116.814 9.698 116.355 9.698ZM115.794 20V11.5H116.916V20H115.794ZM123.602 12.588H121.154V17.739C121.154 19.201 121.953 19.082 123.602 19.014V20C121.307 20.34 120.032 19.779 120.032 17.739V12.588H118.247V11.5H120.032V9.46L121.154 9.12V11.5H123.602V12.588ZM132.067 11.5H133.189V20H132.067V18.334C131.353 19.473 130.146 20.204 128.633 20.204C126.236 20.204 124.247 18.266 124.247 15.75C124.247 13.234 126.236 11.296 128.633 11.296C130.146 11.296 131.353 12.027 132.067 13.166V11.5ZM128.718 19.116C130.605 19.116 132.067 17.637 132.067 15.75C132.067 13.863 130.605 12.384 128.718 12.384C126.831 12.384 125.369 13.863 125.369 15.75C125.369 17.637 126.831 19.116 128.718 19.116ZM135.365 20V7.59H136.487V20H135.365ZM153.768 8.1V20H152.578V9.902L148.413 16.872H148.243L144.078 9.902V20H142.888V8.1H144.367L148.328 14.73L152.289 8.1H153.768ZM163.425 11.5H164.547V20H163.425V18.334C162.711 19.473 161.504 20.204 159.991 20.204C157.594 20.204 155.605 18.266 155.605 15.75C155.605 13.234 157.594 11.296 159.991 11.296C161.504 11.296 162.711 12.027 163.425 13.166V11.5ZM160.076 19.116C161.963 19.116 163.425 17.637 163.425 15.75C163.425 13.863 161.963 12.384 160.076 12.384C158.189 12.384 156.727 13.863 156.727 15.75C156.727 17.637 158.189 19.116 160.076 19.116ZM167.844 12.911C168.439 11.721 169.442 11.364 170.53 11.364V12.452C169.17 12.452 167.844 13.166 167.844 15.274V20H166.722V11.5H167.844V12.911ZM178.736 20H177.24L172.99 15.903V20H171.868V8.1H172.99V15.257L177.036 11.5H178.566L174.18 15.58L178.736 20ZM183.149 11.296C185.75 11.296 187.365 13.455 187.365 15.784C187.365 15.954 187.348 16.141 187.331 16.311H179.868C180.106 18.045 181.449 19.116 183.251 19.116C184.594 19.116 185.529 18.487 185.988 17.671L186.974 18.249C186.26 19.405 184.951 20.204 183.234 20.204C180.548 20.204 178.712 18.317 178.712 15.75C178.712 13.251 180.514 11.296 183.149 11.296ZM183.149 12.384C181.364 12.384 180.089 13.557 179.868 15.223H186.209C185.971 13.353 184.611 12.384 183.149 12.384ZM193.205 12.588H190.757V17.739C190.757 19.201 191.556 19.082 193.205 19.014V20C190.91 20.34 189.635 19.779 189.635 17.739V12.588H187.85V11.5H189.635V9.46L190.757 9.12V11.5H193.205V12.588ZM198.288 11.296C200.889 11.296 202.504 13.455 202.504 15.784C202.504 15.954 202.487 16.141 202.47 16.311H195.007C195.245 18.045 196.588 19.116 198.39 19.116C199.733 19.116 200.668 18.487 201.127 17.671L202.113 18.249C201.399 19.405 200.09 20.204 198.373 20.204C195.687 20.204 193.851 18.317 193.851 15.75C193.851 13.251 195.653 11.296 198.288 11.296ZM198.288 12.384C196.503 12.384 195.228 13.557 195.007 15.223H201.348C201.11 13.353 199.75 12.384 198.288 12.384ZM205.21 12.911C205.805 11.721 206.808 11.364 207.896 11.364V12.452C206.536 12.452 205.21 13.166 205.21 15.274V20H204.088V11.5H205.21V12.911Z" fill="#161C2D"/>
</svg>
