<svg width="95" height="29" viewBox="0 0 95 29" fill="none" xmlns="http://www.w3.org/2000/svg">
<g clip-path="url(#clip0_35_113)">
<rect opacity="0.1" width="95" height="29" rx="14.5" fill="#473BF0"/>
<path d="M17.4081 18.182C15.5491 18.182 14.3271 17.285 13.8331 15.933L15.3671 15.036C15.6921 15.881 16.3291 16.427 17.4601 16.427C18.5391 16.427 18.9161 15.972 18.9161 15.465C18.9161 14.789 18.3051 14.529 16.9531 14.139C15.5621 13.736 14.2101 13.151 14.2101 11.422C14.2101 9.706 15.6401 8.718 17.2001 8.718C18.6951 8.718 19.8391 9.485 20.4501 10.759L18.9421 11.63C18.6171 10.941 18.1231 10.46 17.2001 10.46C16.4461 10.46 16.0041 10.85 16.0041 11.37C16.0041 11.929 16.3551 12.228 17.7331 12.644C19.1761 13.099 20.7101 13.58 20.7101 15.439C20.7101 17.142 19.3451 18.182 17.4081 18.182ZM29.2155 18L28.6695 16.362H25.0425L24.4965 18H22.5595L25.7445 8.9H27.9675L31.1655 18H29.2155ZM25.6145 14.685H28.1105L26.8625 10.967L25.6145 14.685ZM35.4026 18L32.3476 8.9H34.2976L36.5206 15.894L38.7306 8.9H40.6936L37.6256 18H35.4026ZM44.9896 16.284H48.8246V18H43.1956V8.9H48.7596V10.616H44.9896V12.553H48.4346V14.243H44.9896V16.284ZM56.0951 18V16.661L59.2021 13.463C59.7871 12.852 60.2421 12.254 60.2421 11.643C60.2421 10.915 59.7481 10.46 59.0591 10.46C58.3571 10.46 57.8371 10.876 57.5381 11.526L56.0301 10.642C56.6151 9.342 57.7981 8.718 59.0331 8.718C60.5931 8.718 62.0361 9.758 62.0361 11.578C62.0361 12.683 61.3991 13.632 60.5411 14.49L58.7601 16.271H62.1791V18H56.0951ZM67.7504 12.215C69.4144 12.215 70.8574 13.242 70.8574 15.192C70.8574 17.142 69.3234 18.182 67.6074 18.182C66.1904 18.182 64.9554 17.558 64.4354 16.232L65.9694 15.335C66.1904 16.037 66.6974 16.427 67.6074 16.427C68.5434 16.427 69.0634 15.933 69.0634 15.192C69.0634 14.464 68.5434 13.957 67.6594 13.957H64.9034L65.2674 8.9H70.4284V10.577H66.9314L66.8144 12.215H67.7504ZM75.3855 13.008C74.1245 13.008 73.1885 12.059 73.1885 10.863C73.1885 9.68 74.1245 8.718 75.3855 8.718C76.6335 8.718 77.5695 9.654 77.5695 10.863C77.5695 12.059 76.6465 13.008 75.3855 13.008ZM74.1115 16.622L80.0395 10.031L80.8325 10.473L74.8915 17.077L74.1115 16.622ZM75.3725 11.695C75.8535 11.695 76.1915 11.318 76.1915 10.863C76.1915 10.408 75.8535 10.044 75.3725 10.044C74.9045 10.044 74.5665 10.408 74.5665 10.863C74.5665 11.331 74.9045 11.695 75.3725 11.695ZM79.7795 18.156C78.5185 18.156 77.5955 17.194 77.5955 16.011C77.5955 14.828 78.5185 13.866 79.7795 13.866C81.0405 13.866 81.9635 14.828 81.9635 16.011C81.9635 17.194 81.0405 18.156 79.7795 18.156ZM79.7795 16.843C80.2605 16.843 80.5855 16.453 80.5855 16.011C80.5855 15.543 80.2605 15.179 79.7795 15.179C79.2985 15.179 78.9735 15.543 78.9735 16.011C78.9735 16.479 79.2985 16.843 79.7795 16.843Z" fill="#473BF0"/>
</g>
<defs>
<clipPath id="clip0_35_113">
<rect width="95" height="29" fill="white"/>
</clipPath>
</defs>
</svg>
