<svg width="251" height="205" viewBox="0 0 251 205" fill="none" xmlns="http://www.w3.org/2000/svg">
<g clip-path="url(#clip0_61_147)">
<path d="M34.919 20.204C31.264 20.204 28.68 17.45 28.68 14.05C28.68 10.65 31.264 7.896 34.919 7.896C37.129 7.896 39.084 9.052 40.07 10.82L39.016 11.432C38.285 10.004 36.704 9.052 34.919 9.052C31.91 9.052 29.87 11.279 29.87 14.05C29.87 16.821 31.91 19.048 34.919 19.048C36.704 19.048 38.285 18.096 39.016 16.668L40.07 17.263C39.101 19.031 37.146 20.204 34.919 20.204ZM45.535 20.204C43.053 20.204 41.064 18.266 41.064 15.75C41.064 13.234 43.053 11.296 45.535 11.296C48.017 11.296 50.006 13.234 50.006 15.75C50.006 18.266 48.017 20.204 45.535 20.204ZM45.535 19.116C47.422 19.116 48.884 17.637 48.884 15.75C48.884 13.863 47.422 12.384 45.535 12.384C43.648 12.384 42.186 13.863 42.186 15.75C42.186 17.637 43.648 19.116 45.535 19.116ZM60.7446 11.296C62.6146 11.296 63.9236 12.571 63.9236 14.696V20H62.8016V14.696C62.8016 13.183 61.9346 12.384 60.7276 12.384C59.4186 12.384 58.3646 13.183 58.3646 15.291V20H57.2426V14.696C57.2426 13.183 56.4606 12.384 55.2536 12.384C54.0296 12.384 52.8056 13.183 52.8056 15.291V20H51.6836V11.5H52.8056V12.741C53.4686 11.704 54.3866 11.296 55.4066 11.296C56.5966 11.296 57.5146 11.857 57.9906 12.843C58.6196 11.789 59.6566 11.296 60.7446 11.296ZM74.9547 11.296C76.8247 11.296 78.1337 12.571 78.1337 14.696V20H77.0117V14.696C77.0117 13.183 76.1447 12.384 74.9377 12.384C73.6287 12.384 72.5747 13.183 72.5747 15.291V20H71.4527V14.696C71.4527 13.183 70.6707 12.384 69.4637 12.384C68.2397 12.384 67.0157 13.183 67.0157 15.291V20H65.8937V11.5H67.0157V12.741C67.6787 11.704 68.5967 11.296 69.6167 11.296C70.8067 11.296 71.7247 11.857 72.2007 12.843C72.8297 11.789 73.8667 11.296 74.9547 11.296ZM84.0309 11.296C86.6319 11.296 88.2469 13.455 88.2469 15.784C88.2469 15.954 88.2299 16.141 88.2129 16.311H80.7499C80.9879 18.045 82.3309 19.116 84.1329 19.116C85.4759 19.116 86.4109 18.487 86.8699 17.671L87.8559 18.249C87.1419 19.405 85.8329 20.204 84.1159 20.204C81.4299 20.204 79.5939 18.317 79.5939 15.75C79.5939 13.251 81.3959 11.296 84.0309 11.296ZM84.0309 12.384C82.2459 12.384 80.9709 13.557 80.7499 15.223H87.0909C86.8529 13.353 85.4929 12.384 84.0309 12.384ZM90.9536 12.911C91.5486 11.721 92.5516 11.364 93.6396 11.364V12.452C92.2796 12.452 90.9536 13.166 90.9536 15.274V20H89.8316V11.5H90.9536V12.911ZM98.4237 20.204C95.8567 20.204 93.9527 18.266 93.9527 15.75C93.9527 13.234 95.8567 11.296 98.4237 11.296C100.107 11.296 101.535 12.18 102.147 13.523L101.229 14.05C100.77 13.047 99.6987 12.384 98.4237 12.384C96.5367 12.384 95.0747 13.863 95.0747 15.75C95.0747 17.637 96.5367 19.116 98.4237 19.116C99.7157 19.116 100.753 18.436 101.297 17.45L102.232 17.994C101.535 19.337 100.09 20.204 98.4237 20.204ZM104.204 9.698C103.745 9.698 103.388 9.324 103.388 8.882C103.388 8.44 103.745 8.066 104.204 8.066C104.663 8.066 105.02 8.44 105.02 8.882C105.02 9.324 104.663 9.698 104.204 9.698ZM103.643 20V11.5H104.765V20H103.643ZM114.255 11.5H115.377V20H114.255V18.334C113.541 19.473 112.334 20.204 110.821 20.204C108.424 20.204 106.435 18.266 106.435 15.75C106.435 13.234 108.424 11.296 110.821 11.296C112.334 11.296 113.541 12.027 114.255 13.166V11.5ZM110.906 19.116C112.793 19.116 114.255 17.637 114.255 15.75C114.255 13.863 112.793 12.384 110.906 12.384C109.019 12.384 107.557 13.863 107.557 15.75C107.557 17.637 109.019 19.116 110.906 19.116ZM117.553 20V7.59H118.675V20H117.553ZM126.266 18.878H131.706V20H125.076V8.1H126.266V18.878ZM133.601 9.698C133.142 9.698 132.785 9.324 132.785 8.882C132.785 8.44 133.142 8.066 133.601 8.066C134.06 8.066 134.417 8.44 134.417 8.882C134.417 9.324 134.06 9.698 133.601 9.698ZM133.04 20V11.5H134.162V20H133.04ZM140.304 20.204C137.737 20.204 135.833 18.266 135.833 15.75C135.833 13.234 137.737 11.296 140.304 11.296C141.987 11.296 143.415 12.18 144.027 13.523L143.109 14.05C142.65 13.047 141.579 12.384 140.304 12.384C138.417 12.384 136.955 13.863 136.955 15.75C136.955 17.637 138.417 19.116 140.304 19.116C141.596 19.116 142.633 18.436 143.177 17.45L144.112 17.994C143.415 19.337 141.97 20.204 140.304 20.204ZM149.367 11.296C151.968 11.296 153.583 13.455 153.583 15.784C153.583 15.954 153.566 16.141 153.549 16.311H146.086C146.324 18.045 147.667 19.116 149.469 19.116C150.812 19.116 151.747 18.487 152.206 17.671L153.192 18.249C152.478 19.405 151.169 20.204 149.452 20.204C146.766 20.204 144.93 18.317 144.93 15.75C144.93 13.251 146.732 11.296 149.367 11.296ZM149.367 12.384C147.582 12.384 146.307 13.557 146.086 15.223H152.427C152.189 13.353 150.829 12.384 149.367 12.384ZM159.146 11.296C161.22 11.296 162.478 12.656 162.478 14.781V20H161.356V14.781C161.356 13.268 160.523 12.384 159.044 12.384C157.548 12.384 156.29 13.268 156.29 15.546V20H155.168V11.5H156.29V12.826C156.953 11.755 157.939 11.296 159.146 11.296ZM165.331 13.727C165.331 15.835 170.295 14.628 170.295 17.756C170.295 19.201 169.037 20.204 167.218 20.204C165.518 20.204 164.362 19.337 163.937 18.249L164.889 17.688C165.195 18.555 166.079 19.116 167.218 19.116C168.221 19.116 169.173 18.759 169.173 17.756C169.173 15.648 164.209 16.855 164.209 13.727C164.209 12.367 165.416 11.296 167.116 11.296C168.51 11.296 169.598 11.976 170.091 13.03L169.156 13.574C168.799 12.707 167.932 12.384 167.116 12.384C166.232 12.384 165.331 12.809 165.331 13.727ZM175.645 11.296C178.246 11.296 179.861 13.455 179.861 15.784C179.861 15.954 179.844 16.141 179.827 16.311H172.364C172.602 18.045 173.945 19.116 175.747 19.116C177.09 19.116 178.025 18.487 178.484 17.671L179.47 18.249C178.756 19.405 177.447 20.204 175.73 20.204C173.044 20.204 171.208 18.317 171.208 15.75C171.208 13.251 173.01 11.296 175.645 11.296ZM175.645 12.384C173.86 12.384 172.585 13.557 172.364 15.223H178.705C178.467 13.353 177.107 12.384 175.645 12.384Z" fill="#161C2D"/>
<path d="M6.20704 19.7692C5.91354 19.7692 5.62062 19.659 5.39648 19.4381L0 14.1188L1.62112 12.5203L6.20704 17.0406L15.3789 8L17 9.5985L7.0176 19.4381C6.79347 19.659 6.50054 19.7692 6.20704 19.7692Z" fill="#68D585"/>
</g>
<g clip-path="url(#clip1_61_147)">
<path d="M31.4 52.1H32.42V64H31.23V53.409L28.561 54.208L28.255 53.188L31.4 52.1ZM38.9323 64.204C36.0253 64.204 34.4273 61.722 34.4273 58.05C34.4273 54.378 36.0253 51.896 38.9323 51.896C41.8393 51.896 43.4373 54.378 43.4373 58.05C43.4373 61.722 41.8393 64.204 38.9323 64.204ZM38.9323 63.048C41.0233 63.048 42.2473 61.229 42.2473 58.05C42.2473 54.871 41.0233 53.052 38.9323 53.052C36.8413 53.052 35.6173 54.871 35.6173 58.05C35.6173 61.229 36.8413 63.048 38.9323 63.048ZM49.4404 64.204C46.5334 64.204 44.9354 61.722 44.9354 58.05C44.9354 54.378 46.5334 51.896 49.4404 51.896C52.3474 51.896 53.9454 54.378 53.9454 58.05C53.9454 61.722 52.3474 64.204 49.4404 64.204ZM49.4404 63.048C51.5314 63.048 52.7554 61.229 52.7554 58.05C52.7554 54.871 51.5314 53.052 49.4404 53.052C47.3494 53.052 46.1254 54.871 46.1254 58.05C46.1254 61.229 47.3494 63.048 49.4404 63.048ZM62.7534 57.506V58.594H59.7274V61.62H58.6394V58.594H55.6134V57.506H58.6394V54.48H59.7274V57.506H62.7534ZM76.634 52.1H77.824V64H76.634V58.441H70.174V64H68.984V52.1H70.174V57.319H76.634V52.1ZM87.8187 52.1V53.222H84.1637V64H82.9737V53.222H79.3187V52.1H87.8187ZM100.199 52.1V64H99.0094V53.902L94.8444 60.872H94.6744L90.5094 53.902V64H89.3194V52.1H90.7984L94.7594 58.73L98.7204 52.1H100.199ZM103.906 62.878H109.346V64H102.716V52.1H103.906V62.878ZM119.15 64.204C116.549 64.204 114.73 62.555 114.73 59.954V52.1H115.92V59.954C115.92 61.841 117.093 63.048 119.15 63.048C121.207 63.048 122.38 61.841 122.38 59.954V52.1H123.57V59.954C123.57 62.555 121.751 64.204 119.15 64.204ZM125.923 52.1H127.113V64H125.923V52.1ZM134.881 62.878H140.661V64H133.691V52.1H140.576V53.222H134.881V57.438H140.151V58.56H134.881V62.878ZM142.335 64V51.59H143.457V64H142.335ZM149.565 55.296C152.166 55.296 153.781 57.455 153.781 59.784C153.781 59.954 153.764 60.141 153.747 60.311H146.284C146.522 62.045 147.865 63.116 149.667 63.116C151.01 63.116 151.945 62.487 152.404 61.671L153.39 62.249C152.676 63.405 151.367 64.204 149.65 64.204C146.964 64.204 145.128 62.317 145.128 59.75C145.128 57.251 146.93 55.296 149.565 55.296ZM149.565 56.384C147.78 56.384 146.505 57.557 146.284 59.223H152.625C152.387 57.353 151.027 56.384 149.565 56.384ZM164.427 55.296C166.297 55.296 167.606 56.571 167.606 58.696V64H166.484V58.696C166.484 57.183 165.617 56.384 164.41 56.384C163.101 56.384 162.047 57.183 162.047 59.291V64H160.925V58.696C160.925 57.183 160.143 56.384 158.936 56.384C157.712 56.384 156.488 57.183 156.488 59.291V64H155.366V55.5H156.488V56.741C157.151 55.704 158.069 55.296 159.089 55.296C160.279 55.296 161.197 55.857 161.673 56.843C162.302 55.789 163.339 55.296 164.427 55.296ZM173.503 55.296C176.104 55.296 177.719 57.455 177.719 59.784C177.719 59.954 177.702 60.141 177.685 60.311H170.222C170.46 62.045 171.803 63.116 173.605 63.116C174.948 63.116 175.883 62.487 176.342 61.671L177.328 62.249C176.614 63.405 175.305 64.204 173.588 64.204C170.902 64.204 169.066 62.317 169.066 59.75C169.066 57.251 170.868 55.296 173.503 55.296ZM173.503 56.384C171.718 56.384 170.443 57.557 170.222 59.223H176.563C176.325 57.353 174.965 56.384 173.503 56.384ZM183.282 55.296C185.356 55.296 186.614 56.656 186.614 58.781V64H185.492V58.781C185.492 57.268 184.659 56.384 183.18 56.384C181.684 56.384 180.426 57.268 180.426 59.546V64H179.304V55.5H180.426V56.826C181.089 55.755 182.075 55.296 183.282 55.296ZM193.088 56.588H190.64V61.739C190.64 63.201 191.439 63.082 193.088 63.014V64C190.793 64.34 189.518 63.779 189.518 61.739V56.588H187.733V55.5H189.518V53.46L190.64 53.12V55.5H193.088V56.588ZM195.128 57.727C195.128 59.835 200.092 58.628 200.092 61.756C200.092 63.201 198.834 64.204 197.015 64.204C195.315 64.204 194.159 63.337 193.734 62.249L194.686 61.688C194.992 62.555 195.876 63.116 197.015 63.116C198.018 63.116 198.97 62.759 198.97 61.756C198.97 59.648 194.006 60.855 194.006 57.727C194.006 56.367 195.213 55.296 196.913 55.296C198.307 55.296 199.395 55.976 199.888 57.03L198.953 57.574C198.596 56.707 197.729 56.384 196.913 56.384C196.029 56.384 195.128 56.809 195.128 57.727Z" fill="#161C2D"/>
<path d="M6.20704 63.7692C5.91354 63.7692 5.62062 63.659 5.39648 63.4381L0 58.1188L1.62112 56.5203L6.20704 61.0406L15.3789 52L17 53.5985L7.0176 63.4381C6.79347 63.659 6.50054 63.7692 6.20704 63.7692Z" fill="#68D585"/>
</g>
<g clip-path="url(#clip2_61_147)">
<path d="M33.61 108.204C31.009 108.204 29.19 106.555 29.19 103.954V96.1H30.38V103.954C30.38 105.841 31.553 107.048 33.61 107.048C35.667 107.048 36.84 105.841 36.84 103.954V96.1H38.03V103.954C38.03 106.555 36.211 108.204 33.61 108.204ZM44.1907 99.296C46.2647 99.296 47.5227 100.656 47.5227 102.781V108H46.4007V102.781C46.4007 101.268 45.5677 100.384 44.0887 100.384C42.5927 100.384 41.3347 101.268 41.3347 103.546V108H40.2127V99.5H41.3347V100.826C41.9977 99.755 42.9837 99.296 44.1907 99.296ZM49.4921 108V95.59H50.6141V108H49.4921ZM53.3561 97.698C52.8971 97.698 52.5401 97.324 52.5401 96.882C52.5401 96.44 52.8971 96.066 53.3561 96.066C53.8151 96.066 54.1721 96.44 54.1721 96.882C54.1721 97.324 53.8151 97.698 53.3561 97.698ZM52.7951 108V99.5H53.9171V108H52.7951ZM65.159 99.296C67.029 99.296 68.338 100.571 68.338 102.696V108H67.216V102.696C67.216 101.183 66.349 100.384 65.142 100.384C63.833 100.384 62.779 101.183 62.779 103.291V108H61.657V102.696C61.657 101.183 60.875 100.384 59.668 100.384C58.444 100.384 57.22 101.183 57.22 103.291V108H56.098V99.5H57.22V100.741C57.883 99.704 58.801 99.296 59.821 99.296C61.011 99.296 61.929 99.857 62.405 100.843C63.034 99.789 64.071 99.296 65.159 99.296ZM70.8692 97.698C70.4102 97.698 70.0532 97.324 70.0532 96.882C70.0532 96.44 70.4102 96.066 70.8692 96.066C71.3282 96.066 71.6852 96.44 71.6852 96.882C71.6852 97.324 71.3282 97.698 70.8692 97.698ZM70.3082 108V99.5H71.4302V108H70.3082ZM78.1161 100.588H75.6681V105.739C75.6681 107.201 76.4671 107.082 78.1161 107.014V108C75.8211 108.34 74.5461 107.779 74.5461 105.739V100.588H72.7611V99.5H74.5461V97.46L75.6681 97.12V99.5H78.1161V100.588ZM83.1984 99.296C85.7994 99.296 87.4144 101.455 87.4144 103.784C87.4144 103.954 87.3974 104.141 87.3804 104.311H79.9174C80.1554 106.045 81.4984 107.116 83.3004 107.116C84.6434 107.116 85.5784 106.487 86.0374 105.671L87.0234 106.249C86.3094 107.405 85.0004 108.204 83.2834 108.204C80.5974 108.204 78.7614 106.317 78.7614 103.75C78.7614 101.251 80.5634 99.296 83.1984 99.296ZM83.1984 100.384C81.4134 100.384 80.1384 101.557 79.9174 103.223H86.2584C86.0204 101.353 84.6604 100.384 83.1984 100.384ZM96.3092 96.1H97.4312V108H96.3092V106.334C95.5952 107.473 94.3882 108.204 92.8752 108.204C90.4782 108.204 88.4892 106.266 88.4892 103.75C88.4892 101.234 90.4782 99.296 92.8752 99.296C94.3882 99.296 95.5952 100.027 96.3092 101.166V96.1ZM92.9602 107.116C94.8472 107.116 96.3092 105.637 96.3092 103.75C96.3092 101.863 94.8472 100.384 92.9602 100.384C91.0732 100.384 89.6112 101.863 89.6112 103.75C89.6112 105.637 91.0732 107.116 92.9602 107.116ZM108.417 96.1C111.698 96.1 114.027 98.769 114.027 102.05C114.027 105.331 111.698 108 108.417 108H103.827V96.1H108.417ZM108.417 106.878C111.069 106.878 112.871 104.719 112.871 102.05C112.871 99.381 111.069 97.222 108.417 97.222H105.017V106.878H108.417ZM119.653 108.204C117.171 108.204 115.182 106.266 115.182 103.75C115.182 101.234 117.171 99.296 119.653 99.296C122.135 99.296 124.124 101.234 124.124 103.75C124.124 106.266 122.135 108.204 119.653 108.204ZM119.653 107.116C121.54 107.116 123.002 105.637 123.002 103.75C123.002 101.863 121.54 100.384 119.653 100.384C117.766 100.384 116.304 101.863 116.304 103.75C116.304 105.637 117.766 107.116 119.653 107.116ZM134.863 99.296C136.733 99.296 138.042 100.571 138.042 102.696V108H136.92V102.696C136.92 101.183 136.053 100.384 134.846 100.384C133.537 100.384 132.483 101.183 132.483 103.291V108H131.361V102.696C131.361 101.183 130.579 100.384 129.372 100.384C128.148 100.384 126.924 101.183 126.924 103.291V108H125.802V99.5H126.924V100.741C127.587 99.704 128.505 99.296 129.525 99.296C130.715 99.296 131.633 99.857 132.109 100.843C132.738 99.789 133.775 99.296 134.863 99.296ZM147.322 99.5H148.444V108H147.322V106.334C146.608 107.473 145.401 108.204 143.888 108.204C141.491 108.204 139.502 106.266 139.502 103.75C139.502 101.234 141.491 99.296 143.888 99.296C145.401 99.296 146.608 100.027 147.322 101.166V99.5ZM143.973 107.116C145.86 107.116 147.322 105.637 147.322 103.75C147.322 101.863 145.86 100.384 143.973 100.384C142.086 100.384 140.624 101.863 140.624 103.75C140.624 105.637 142.086 107.116 143.973 107.116ZM151.18 97.698C150.721 97.698 150.364 97.324 150.364 96.882C150.364 96.44 150.721 96.066 151.18 96.066C151.639 96.066 151.996 96.44 151.996 96.882C151.996 97.324 151.639 97.698 151.18 97.698ZM150.619 108V99.5H151.741V108H150.619ZM157.9 99.296C159.974 99.296 161.232 100.656 161.232 102.781V108H160.11V102.781C160.11 101.268 159.277 100.384 157.798 100.384C156.302 100.384 155.044 101.268 155.044 103.546V108H153.922V99.5H155.044V100.826C155.707 99.755 156.693 99.296 157.9 99.296ZM171.162 108.204C168.969 108.204 167.354 107.099 166.742 105.297L167.762 104.702C168.187 106.13 169.309 107.048 171.179 107.048C172.981 107.048 173.984 106.181 173.984 104.906C173.984 103.529 172.811 103.087 171.06 102.509C169.122 101.863 167.252 101.353 167.252 99.16C167.252 97.069 168.935 95.896 170.907 95.896C172.862 95.896 174.222 97.052 174.834 98.463L173.831 99.024C173.389 97.953 172.471 97.052 170.907 97.052C169.479 97.052 168.442 97.8 168.442 99.109C168.442 100.401 169.462 100.809 171.077 101.336C173.236 102.05 175.174 102.662 175.174 104.872C175.174 106.912 173.542 108.204 171.162 108.204ZM182.831 99.5H183.953V108H182.831V106.674C182.168 107.745 181.182 108.204 179.975 108.204C177.901 108.204 176.643 106.844 176.643 104.719V99.5H177.765V104.719C177.765 106.232 178.598 107.116 180.077 107.116C181.573 107.116 182.831 106.232 182.831 103.954V99.5ZM190.682 99.296C193.079 99.296 195.068 101.234 195.068 103.75C195.068 106.266 193.079 108.204 190.682 108.204C189.169 108.204 187.962 107.473 187.248 106.334V111.4H186.126V99.5H187.248V101.166C187.962 100.027 189.169 99.296 190.682 99.296ZM190.597 107.116C192.484 107.116 193.946 105.637 193.946 103.75C193.946 101.863 192.484 100.384 190.597 100.384C188.71 100.384 187.248 101.863 187.248 103.75C187.248 105.637 188.71 107.116 190.597 107.116ZM201.29 99.296C203.687 99.296 205.676 101.234 205.676 103.75C205.676 106.266 203.687 108.204 201.29 108.204C199.777 108.204 198.57 107.473 197.856 106.334V111.4H196.734V99.5H197.856V101.166C198.57 100.027 199.777 99.296 201.29 99.296ZM201.205 107.116C203.092 107.116 204.554 105.637 204.554 103.75C204.554 101.863 203.092 100.384 201.205 100.384C199.318 100.384 197.856 101.863 197.856 103.75C197.856 105.637 199.318 107.116 201.205 107.116ZM211.303 108.204C208.821 108.204 206.832 106.266 206.832 103.75C206.832 101.234 208.821 99.296 211.303 99.296C213.785 99.296 215.774 101.234 215.774 103.75C215.774 106.266 213.785 108.204 211.303 108.204ZM211.303 107.116C213.19 107.116 214.652 105.637 214.652 103.75C214.652 101.863 213.19 100.384 211.303 100.384C209.416 100.384 207.954 101.863 207.954 103.75C207.954 105.637 209.416 107.116 211.303 107.116ZM218.573 100.911C219.168 99.721 220.171 99.364 221.259 99.364V100.452C219.899 100.452 218.573 101.166 218.573 103.274V108H217.451V99.5H218.573V100.911ZM227.268 100.588H224.82V105.739C224.82 107.201 225.619 107.082 227.268 107.014V108C224.973 108.34 223.698 107.779 223.698 105.739V100.588H221.913V99.5H223.698V97.46L224.82 97.12V99.5H227.268V100.588Z" fill="#161C2D"/>
<path d="M6.20704 107.769C5.91354 107.769 5.62062 107.659 5.39648 107.438L0 102.119L1.62112 100.52L6.20704 105.041L15.3789 96L17 97.5985L7.0176 107.438C6.79347 107.659 6.50054 107.769 6.20704 107.769Z" fill="#68D585"/>
</g>
<g clip-path="url(#clip3_61_147)">
<path d="M32.505 144.35C34.817 144.35 36.5 145.948 36.5 148.277C36.5 150.606 34.817 152.204 32.505 152.204C30.193 152.204 28.51 150.606 28.51 148.277C28.51 147.342 28.782 146.543 29.241 145.897L33.134 140.1H34.477L31.553 144.452C31.859 144.384 32.182 144.35 32.505 144.35ZM32.505 151.048C34.188 151.048 35.31 149.943 35.31 148.277C35.31 146.611 34.188 145.506 32.505 145.506C30.822 145.506 29.7 146.611 29.7 148.277C29.7 149.943 30.822 151.048 32.505 151.048ZM53.1046 140.1V152H51.9146V141.902L47.7496 148.872H47.5796L43.4146 141.902V152H42.2246V140.1H43.7036L47.6646 146.73L51.6256 140.1H53.1046ZM59.4123 152.204C56.9303 152.204 54.9413 150.266 54.9413 147.75C54.9413 145.234 56.9303 143.296 59.4123 143.296C61.8943 143.296 63.8833 145.234 63.8833 147.75C63.8833 150.266 61.8943 152.204 59.4123 152.204ZM59.4123 151.116C61.2993 151.116 62.7613 149.637 62.7613 147.75C62.7613 145.863 61.2993 144.384 59.4123 144.384C57.5253 144.384 56.0633 145.863 56.0633 147.75C56.0633 149.637 57.5253 151.116 59.4123 151.116ZM69.5389 143.296C71.6129 143.296 72.8709 144.656 72.8709 146.781V152H71.7489V146.781C71.7489 145.268 70.9159 144.384 69.4369 144.384C67.9409 144.384 66.6829 145.268 66.6829 147.546V152H65.5609V143.5H66.6829V144.826C67.3459 143.755 68.3319 143.296 69.5389 143.296ZM79.3454 144.588H76.8974V149.739C76.8974 151.201 77.6964 151.082 79.3454 151.014V152C77.0504 152.34 75.7754 151.779 75.7754 149.739V144.588H73.9904V143.5H75.7754V141.46L76.8974 141.12V143.5H79.3454V144.588ZM84.9934 143.296C87.0674 143.296 88.3254 144.656 88.3254 146.781V152H87.2034V146.781C87.2034 145.268 86.3704 144.384 84.8914 144.384C83.3954 144.384 82.1374 145.268 82.1374 147.546V152H81.0154V140.1H82.1374V144.826C82.8004 143.755 83.7864 143.296 84.9934 143.296ZM98.7649 140.1C100.907 140.1 102.505 141.698 102.505 143.84C102.505 145.965 100.907 147.58 98.7649 147.58H95.7049V152H94.5149V140.1H98.7649ZM98.7649 146.458C100.244 146.458 101.315 145.353 101.315 143.84C101.315 142.31 100.244 141.222 98.7649 141.222H95.7049V146.458H98.7649ZM105.128 144.911C105.723 143.721 106.726 143.364 107.814 143.364V144.452C106.454 144.452 105.128 145.166 105.128 147.274V152H104.006V143.5H105.128V144.911ZM112.564 143.296C115.165 143.296 116.78 145.455 116.78 147.784C116.78 147.954 116.763 148.141 116.746 148.311H109.283C109.521 150.045 110.864 151.116 112.666 151.116C114.009 151.116 114.944 150.487 115.403 149.671L116.389 150.249C115.675 151.405 114.366 152.204 112.649 152.204C109.963 152.204 108.127 150.317 108.127 147.75C108.127 145.251 109.929 143.296 112.564 143.296ZM112.564 144.384C110.779 144.384 109.504 145.557 109.283 147.223H115.624C115.386 145.353 114.026 144.384 112.564 144.384ZM127.426 143.296C129.296 143.296 130.605 144.571 130.605 146.696V152H129.483V146.696C129.483 145.183 128.616 144.384 127.409 144.384C126.1 144.384 125.046 145.183 125.046 147.291V152H123.924V146.696C123.924 145.183 123.142 144.384 121.935 144.384C120.711 144.384 119.487 145.183 119.487 147.291V152H118.365V143.5H119.487V144.741C120.15 143.704 121.068 143.296 122.088 143.296C123.278 143.296 124.196 143.857 124.672 144.843C125.301 143.789 126.338 143.296 127.426 143.296ZM133.136 141.698C132.677 141.698 132.32 141.324 132.32 140.882C132.32 140.44 132.677 140.066 133.136 140.066C133.595 140.066 133.952 140.44 133.952 140.882C133.952 141.324 133.595 141.698 133.136 141.698ZM132.575 152V143.5H133.697V152H132.575ZM141.862 143.5H142.984V152H141.862V150.674C141.199 151.745 140.213 152.204 139.006 152.204C136.932 152.204 135.674 150.844 135.674 148.719V143.5H136.796V148.719C136.796 150.232 137.629 151.116 139.108 151.116C140.604 151.116 141.862 150.232 141.862 147.954V143.5ZM154.219 143.296C156.089 143.296 157.398 144.571 157.398 146.696V152H156.276V146.696C156.276 145.183 155.409 144.384 154.202 144.384C152.893 144.384 151.839 145.183 151.839 147.291V152H150.717V146.696C150.717 145.183 149.935 144.384 148.728 144.384C147.504 144.384 146.28 145.183 146.28 147.291V152H145.158V143.5H146.28V144.741C146.943 143.704 147.861 143.296 148.881 143.296C150.071 143.296 150.989 143.857 151.465 144.843C152.094 143.789 153.131 143.296 154.219 143.296ZM167.328 152.204C165.135 152.204 163.52 151.099 162.908 149.297L163.928 148.702C164.353 150.13 165.475 151.048 167.345 151.048C169.147 151.048 170.15 150.181 170.15 148.906C170.15 147.529 168.977 147.087 167.226 146.509C165.288 145.863 163.418 145.353 163.418 143.16C163.418 141.069 165.101 139.896 167.073 139.896C169.028 139.896 170.388 141.052 171 142.463L169.997 143.024C169.555 141.953 168.637 141.052 167.073 141.052C165.645 141.052 164.608 141.8 164.608 143.109C164.608 144.401 165.628 144.809 167.243 145.336C169.402 146.05 171.34 146.662 171.34 148.872C171.34 150.912 169.708 152.204 167.328 152.204ZM178.997 143.5H180.119V152H178.997V150.674C178.334 151.745 177.348 152.204 176.141 152.204C174.067 152.204 172.809 150.844 172.809 148.719V143.5H173.931V148.719C173.931 150.232 174.764 151.116 176.243 151.116C177.739 151.116 178.997 150.232 178.997 147.954V143.5ZM186.848 143.296C189.245 143.296 191.234 145.234 191.234 147.75C191.234 150.266 189.245 152.204 186.848 152.204C185.335 152.204 184.128 151.473 183.414 150.334V155.4H182.292V143.5H183.414V145.166C184.128 144.027 185.335 143.296 186.848 143.296ZM186.763 151.116C188.65 151.116 190.112 149.637 190.112 147.75C190.112 145.863 188.65 144.384 186.763 144.384C184.876 144.384 183.414 145.863 183.414 147.75C183.414 149.637 184.876 151.116 186.763 151.116ZM197.456 143.296C199.853 143.296 201.842 145.234 201.842 147.75C201.842 150.266 199.853 152.204 197.456 152.204C195.943 152.204 194.736 151.473 194.022 150.334V155.4H192.9V143.5H194.022V145.166C194.736 144.027 195.943 143.296 197.456 143.296ZM197.371 151.116C199.258 151.116 200.72 149.637 200.72 147.75C200.72 145.863 199.258 144.384 197.371 144.384C195.484 144.384 194.022 145.863 194.022 147.75C194.022 149.637 195.484 151.116 197.371 151.116ZM207.468 152.204C204.986 152.204 202.997 150.266 202.997 147.75C202.997 145.234 204.986 143.296 207.468 143.296C209.95 143.296 211.939 145.234 211.939 147.75C211.939 150.266 209.95 152.204 207.468 152.204ZM207.468 151.116C209.355 151.116 210.817 149.637 210.817 147.75C210.817 145.863 209.355 144.384 207.468 144.384C205.581 144.384 204.119 145.863 204.119 147.75C204.119 149.637 205.581 151.116 207.468 151.116ZM214.739 144.911C215.334 143.721 216.337 143.364 217.425 143.364V144.452C216.065 144.452 214.739 145.166 214.739 147.274V152H213.617V143.5H214.739V144.911ZM223.434 144.588H220.986V149.739C220.986 151.201 221.785 151.082 223.434 151.014V152C221.139 152.34 219.864 151.779 219.864 149.739V144.588H218.079V143.5H219.864V141.46L220.986 141.12V143.5H223.434V144.588Z" fill="#161C2D"/>
<path d="M6.20704 151.769C5.91354 151.769 5.62062 151.659 5.39648 151.438L0 146.119L1.62112 144.52L6.20704 149.041L15.3789 140L17 141.598L7.0176 151.438C6.79347 151.659 6.50054 151.769 6.20704 151.769Z" fill="#68D585"/>
</g>
<g clip-path="url(#clip4_61_147)">
<path opacity="0.7" d="M30.55 194.878H35.99V196H29.36V184.1H30.55V194.878ZM37.885 185.698C37.426 185.698 37.069 185.324 37.069 184.882C37.069 184.44 37.426 184.066 37.885 184.066C38.344 184.066 38.701 184.44 38.701 184.882C38.701 185.324 38.344 185.698 37.885 185.698ZM37.324 196V187.5H38.446V196H37.324ZM44.8769 184.984C43.2279 184.848 42.4289 185.528 42.4289 187.16V187.5H44.8769V188.588H42.4289V196H41.3069V188.588H39.8619V187.5H41.3069V187.16C41.3069 184.95 42.5819 183.726 44.8769 183.896V184.984ZM49.2846 187.296C51.8856 187.296 53.5006 189.455 53.5006 191.784C53.5006 191.954 53.4836 192.141 53.4666 192.311H46.0036C46.2416 194.045 47.5846 195.116 49.3866 195.116C50.7296 195.116 51.6646 194.487 52.1236 193.671L53.1096 194.249C52.3956 195.405 51.0866 196.204 49.3696 196.204C46.6836 196.204 44.8476 194.317 44.8476 191.75C44.8476 189.251 46.6496 187.296 49.2846 187.296ZM49.2846 188.384C47.4996 188.384 46.2246 189.557 46.0036 191.223H52.3446C52.1066 189.353 50.7466 188.384 49.2846 188.384ZM59.3413 188.588H56.8933V193.739C56.8933 195.201 57.6923 195.082 59.3413 195.014V196C57.0463 196.34 55.7713 195.779 55.7713 193.739V188.588H53.9863V187.5H55.7713V185.46L56.8933 185.12V187.5H59.3413V188.588ZM61.5723 185.698C61.1133 185.698 60.7563 185.324 60.7563 184.882C60.7563 184.44 61.1133 184.066 61.5723 184.066C62.0313 184.066 62.3883 184.44 62.3883 184.882C62.3883 185.324 62.0313 185.698 61.5723 185.698ZM61.0113 196V187.5H62.1333V196H61.0113ZM73.3752 187.296C75.2452 187.296 76.5542 188.571 76.5542 190.696V196H75.4322V190.696C75.4322 189.183 74.5652 188.384 73.3582 188.384C72.0492 188.384 70.9952 189.183 70.9952 191.291V196H69.8732V190.696C69.8732 189.183 69.0912 188.384 67.8842 188.384C66.6602 188.384 65.4362 189.183 65.4362 191.291V196H64.3142V187.5H65.4362V188.741C66.0992 187.704 67.0172 187.296 68.0372 187.296C69.2272 187.296 70.1452 187.857 70.6212 188.843C71.2502 187.789 72.2872 187.296 73.3752 187.296ZM82.4514 187.296C85.0524 187.296 86.6674 189.455 86.6674 191.784C86.6674 191.954 86.6504 192.141 86.6334 192.311H79.1704C79.4084 194.045 80.7514 195.116 82.5534 195.116C83.8964 195.116 84.8314 194.487 85.2904 193.671L86.2764 194.249C85.5624 195.405 84.2534 196.204 82.5364 196.204C79.8504 196.204 78.0144 194.317 78.0144 191.75C78.0144 189.251 79.8164 187.296 82.4514 187.296ZM82.4514 188.384C80.6664 188.384 79.3914 189.557 79.1704 191.223H85.5114C85.2734 189.353 83.9134 188.384 82.4514 188.384ZM96.7221 196.204C94.1211 196.204 92.3021 194.555 92.3021 191.954V184.1H93.4921V191.954C93.4921 193.841 94.6651 195.048 96.7221 195.048C98.7791 195.048 99.9521 193.841 99.9521 191.954V184.1H101.142V191.954C101.142 194.555 99.3231 196.204 96.7221 196.204ZM107.881 187.296C110.278 187.296 112.267 189.234 112.267 191.75C112.267 194.266 110.278 196.204 107.881 196.204C106.368 196.204 105.161 195.473 104.447 194.334V199.4H103.325V187.5H104.447V189.166C105.161 188.027 106.368 187.296 107.881 187.296ZM107.796 195.116C109.683 195.116 111.145 193.637 111.145 191.75C111.145 189.863 109.683 188.384 107.796 188.384C105.909 188.384 104.447 189.863 104.447 191.75C104.447 193.637 105.909 195.116 107.796 195.116ZM121.242 184.1H122.364V196H121.242V194.334C120.528 195.473 119.321 196.204 117.808 196.204C115.411 196.204 113.422 194.266 113.422 191.75C113.422 189.234 115.411 187.296 117.808 187.296C119.321 187.296 120.528 188.027 121.242 189.166V184.1ZM117.893 195.116C119.78 195.116 121.242 193.637 121.242 191.75C121.242 189.863 119.78 188.384 117.893 188.384C116.006 188.384 114.544 189.863 114.544 191.75C114.544 193.637 116.006 195.116 117.893 195.116ZM131.85 187.5H132.972V196H131.85V194.334C131.136 195.473 129.929 196.204 128.416 196.204C126.019 196.204 124.03 194.266 124.03 191.75C124.03 189.234 126.019 187.296 128.416 187.296C129.929 187.296 131.136 188.027 131.85 189.166V187.5ZM128.501 195.116C130.388 195.116 131.85 193.637 131.85 191.75C131.85 189.863 130.388 188.384 128.501 188.384C126.614 188.384 125.152 189.863 125.152 191.75C125.152 193.637 126.614 195.116 128.501 195.116ZM139.653 188.588H137.205V193.739C137.205 195.201 138.004 195.082 139.653 195.014V196C137.358 196.34 136.083 195.779 136.083 193.739V188.588H134.298V187.5H136.083V185.46L137.205 185.12V187.5H139.653V188.588ZM144.735 187.296C147.336 187.296 148.951 189.455 148.951 191.784C148.951 191.954 148.934 192.141 148.917 192.311H141.454C141.692 194.045 143.035 195.116 144.837 195.116C146.18 195.116 147.115 194.487 147.574 193.671L148.56 194.249C147.846 195.405 146.537 196.204 144.82 196.204C142.134 196.204 140.298 194.317 140.298 191.75C140.298 189.251 142.1 187.296 144.735 187.296ZM144.735 188.384C142.95 188.384 141.675 189.557 141.454 191.223H147.795C147.557 189.353 146.197 188.384 144.735 188.384ZM151.088 189.727C151.088 191.835 156.052 190.628 156.052 193.756C156.052 195.201 154.794 196.204 152.975 196.204C151.275 196.204 150.119 195.337 149.694 194.249L150.646 193.688C150.952 194.555 151.836 195.116 152.975 195.116C153.978 195.116 154.93 194.759 154.93 193.756C154.93 191.648 149.966 192.855 149.966 189.727C149.966 188.367 151.173 187.296 152.873 187.296C154.267 187.296 155.355 187.976 155.848 189.03L154.913 189.574C154.556 188.707 153.689 188.384 152.873 188.384C151.989 188.384 151.088 188.809 151.088 189.727Z" fill="#161C2D"/>
<path d="M13 185L1 197" stroke="#D5D7DD" stroke-width="2" stroke-linecap="round" stroke-linejoin="round"/>
<path d="M13 197L1 185" stroke="#D5D7DD" stroke-width="2" stroke-linecap="round" stroke-linejoin="round"/>
</g>
<defs>
<clipPath id="clip0_61_147">
<rect width="138" height="29" fill="white"/>
</clipPath>
<clipPath id="clip1_61_147">
<rect width="138" height="29" fill="white" transform="translate(0 44)"/>
</clipPath>
<clipPath id="clip2_61_147">
<rect width="138" height="29" fill="white" transform="translate(0 88)"/>
</clipPath>
<clipPath id="clip3_61_147">
<rect width="138" height="29" fill="white" transform="translate(0 132)"/>
</clipPath>
<clipPath id="clip4_61_147">
<rect width="137" height="29" fill="white" transform="translate(1 176)"/>
</clipPath>
</defs>
</svg>
